<mxfile host="app.diagrams.net" modified="2024-06-08T09:22:23.167Z" agent="Mozilla/5.0 (Windows NT 10.0; Win64; x64) AppleWebKit/537.36 (KHTML, like Gecko) Chrome/122.0.0.0 YaBrowser/24.4.0.0 Safari/537.36" etag="nn-v0VZZ31QOBG1Z_RJ7" version="24.5.2" type="device">
  <diagram name="Страница — 1" id="_arMhbXneBiFdRPfEU7r">
    <mxGraphModel dx="1583" dy="881" grid="1" gridSize="10" guides="1" tooltips="1" connect="1" arrows="1" fold="1" page="1" pageScale="1" pageWidth="827" pageHeight="1169" math="0" shadow="0">
      <root>
        <mxCell id="0" />
        <mxCell id="1" parent="0" />
        <mxCell id="123gNNtidsdUKVOrfeka-16" value="" style="rounded=1;whiteSpace=wrap;html=1;fontFamily=Lucida Console;fontSize=13;fontStyle=1" parent="1" vertex="1">
          <mxGeometry x="10" y="100" width="670" height="290" as="geometry" />
        </mxCell>
        <mxCell id="123gNNtidsdUKVOrfeka-1" value="" style="strokeWidth=2;html=1;shape=mxgraph.flowchart.direct_data;whiteSpace=wrap;fontFamily=Lucida Console;fontSize=13;fontStyle=1;strokeColor=#0066CC;" parent="1" vertex="1">
          <mxGeometry x="330" y="200" width="210" height="40" as="geometry" />
        </mxCell>
        <mxCell id="123gNNtidsdUKVOrfeka-2" value="" style="ellipse;shape=cloud;whiteSpace=wrap;html=1;fontFamily=Lucida Console;fontSize=13;fontStyle=1;strokeColor=#0066CC;" parent="1" vertex="1">
          <mxGeometry x="10" y="140" width="300" height="200" as="geometry" />
        </mxCell>
        <mxCell id="123gNNtidsdUKVOrfeka-5" value="" style="verticalLabelPosition=bottom;html=1;verticalAlign=top;align=center;strokeColor=none;fillColor=#0066CC;shape=mxgraph.azure.computer;pointerEvents=1;fontFamily=Lucida Console;fontSize=13;fontStyle=1" parent="1" vertex="1">
          <mxGeometry x="140" y="301.75" width="40" height="40" as="geometry" />
        </mxCell>
        <mxCell id="123gNNtidsdUKVOrfeka-6" value="" style="endArrow=none;html=1;rounded=0;exitX=0.875;exitY=0.5;exitDx=0;exitDy=0;exitPerimeter=0;entryX=0;entryY=0.5;entryDx=0;entryDy=0;entryPerimeter=0;fontFamily=Lucida Console;fontSize=13;fontStyle=1" parent="1" source="123gNNtidsdUKVOrfeka-2" target="123gNNtidsdUKVOrfeka-1" edge="1">
          <mxGeometry width="50" height="50" relative="1" as="geometry">
            <mxPoint x="200" y="280" as="sourcePoint" />
            <mxPoint x="250" y="230" as="targetPoint" />
            <Array as="points" />
          </mxGeometry>
        </mxCell>
        <UserObject label="HQ-SRV" placeholders="1" name="Variable" id="123gNNtidsdUKVOrfeka-7">
          <mxCell style="text;html=1;strokeColor=none;fillColor=none;align=center;verticalAlign=middle;whiteSpace=wrap;overflow=hidden;fontFamily=Lucida Console;fontSize=15;fontStyle=1" parent="1" vertex="1">
            <mxGeometry x="60" y="145" width="80" height="20" as="geometry" />
          </mxCell>
        </UserObject>
        <UserObject label="HQ-AD" placeholders="1" name="Variable" id="123gNNtidsdUKVOrfeka-9">
          <mxCell style="text;html=1;strokeColor=none;fillColor=none;align=center;verticalAlign=middle;whiteSpace=wrap;overflow=hidden;fontFamily=Lucida Console;fontSize=15;fontStyle=1" parent="1" vertex="1">
            <mxGeometry x="60" y="220" width="80" height="20" as="geometry" />
          </mxCell>
        </UserObject>
        <UserObject label="HQ-CLI" placeholders="1" name="Variable" id="123gNNtidsdUKVOrfeka-10">
          <mxCell style="text;html=1;strokeColor=none;fillColor=none;align=center;verticalAlign=middle;whiteSpace=wrap;overflow=hidden;fontFamily=Lucida Console;fontSize=15;fontStyle=1" parent="1" vertex="1">
            <mxGeometry x="120" y="350" width="80" height="20" as="geometry" />
          </mxCell>
        </UserObject>
        <UserObject label=".1 (dhcp&lt;span style=&quot;background-color: initial; font-size: 13px;&quot;&gt;)&lt;/span&gt;" placeholders="1" name="Variable" id="123gNNtidsdUKVOrfeka-11">
          <mxCell style="text;html=1;strokeColor=none;fillColor=none;align=center;verticalAlign=middle;whiteSpace=wrap;overflow=hidden;fontFamily=Lucida Console;fontSize=13;fontStyle=1" parent="1" vertex="1">
            <mxGeometry x="110" y="180" width="90" height="20" as="geometry" />
          </mxCell>
        </UserObject>
        <UserObject label=":1 (dhcp&lt;span style=&quot;background-color: initial; font-size: 13px;&quot;&gt;)&lt;/span&gt;" placeholders="1" name="Variable" id="123gNNtidsdUKVOrfeka-12">
          <mxCell style="text;html=1;strokeColor=none;fillColor=none;align=center;verticalAlign=middle;whiteSpace=wrap;overflow=hidden;fontFamily=Lucida Console;fontSize=13;fontStyle=1" parent="1" vertex="1">
            <mxGeometry x="110" y="200" width="90" height="20" as="geometry" />
          </mxCell>
        </UserObject>
        <UserObject label="&lt;div style=&quot;font-size: 13px;&quot;&gt;.2&lt;/div&gt;:2" placeholders="1" name="Variable" id="123gNNtidsdUKVOrfeka-14">
          <mxCell style="text;html=1;strokeColor=none;fillColor=none;align=center;verticalAlign=middle;whiteSpace=wrap;overflow=hidden;fontFamily=Lucida Console;fontSize=13;fontStyle=1" parent="1" vertex="1">
            <mxGeometry x="100" y="250" width="55" height="51.75" as="geometry" />
          </mxCell>
        </UserObject>
        <UserObject label="HQ&lt;div style=&quot;font-size: 13px;&quot;&gt;local&lt;/div&gt;" placeholders="1" name="Variable" id="123gNNtidsdUKVOrfeka-15">
          <mxCell style="text;html=1;strokeColor=none;fillColor=none;align=center;verticalAlign=middle;whiteSpace=wrap;overflow=hidden;fontFamily=Lucida Console;fontSize=13;fontStyle=1" parent="1" vertex="1">
            <mxGeometry x="230" y="195" width="52.5" height="40" as="geometry" />
          </mxCell>
        </UserObject>
        <UserObject label="192.168.100.0/26&lt;div style=&quot;font-size: 13px;&quot;&gt;2000:100::/122&lt;/div&gt;" placeholders="1" name="Variable" id="123gNNtidsdUKVOrfeka-17">
          <mxCell style="text;html=1;strokeColor=none;fillColor=none;align=center;verticalAlign=middle;whiteSpace=wrap;overflow=hidden;fontFamily=Lucida Console;fontSize=13;fontStyle=1" parent="1" vertex="1">
            <mxGeometry x="345" y="205" width="155" height="30" as="geometry" />
          </mxCell>
        </UserObject>
        <mxCell id="123gNNtidsdUKVOrfeka-19" value="" style="sketch=0;points=[[0.5,0,0],[1,0.5,0],[0.5,1,0],[0,0.5,0],[0.145,0.145,0],[0.8555,0.145,0],[0.855,0.8555,0],[0.145,0.855,0]];verticalLabelPosition=bottom;html=1;verticalAlign=top;aspect=fixed;align=center;pointerEvents=1;shape=mxgraph.cisco19.rect;prIcon=router;fillColor=#FAFAFA;strokeColor=#0066CC;fontFamily=Lucida Console;fontSize=13;fontStyle=1" parent="1" vertex="1">
          <mxGeometry x="615" y="195" width="50" height="50" as="geometry" />
        </mxCell>
        <UserObject label="HQ-R" placeholders="1" name="Variable" id="123gNNtidsdUKVOrfeka-20">
          <mxCell style="text;html=1;strokeColor=none;fillColor=none;align=center;verticalAlign=middle;whiteSpace=wrap;overflow=hidden;fontFamily=Lucida Console;fontSize=15;fontStyle=1" parent="1" vertex="1">
            <mxGeometry x="600" y="170" width="80" height="20" as="geometry" />
          </mxCell>
        </UserObject>
        <UserObject label=".62&lt;div style=&quot;font-size: 13px;&quot;&gt;:3f&lt;/div&gt;" placeholders="1" name="Variable" id="123gNNtidsdUKVOrfeka-21">
          <mxCell style="text;html=1;strokeColor=none;fillColor=none;align=center;verticalAlign=middle;whiteSpace=wrap;overflow=hidden;fontFamily=Lucida Console;fontSize=13;fontStyle=1" parent="1" vertex="1">
            <mxGeometry x="560" y="220" width="80" height="40" as="geometry" />
          </mxCell>
        </UserObject>
        <mxCell id="123gNNtidsdUKVOrfeka-22" value="" style="endArrow=none;html=1;rounded=0;exitX=1;exitY=0.5;exitDx=0;exitDy=0;entryX=0;entryY=0.5;entryDx=0;entryDy=0;entryPerimeter=0;exitPerimeter=0;fontFamily=Lucida Console;fontSize=13;fontStyle=1" parent="1" source="123gNNtidsdUKVOrfeka-1" target="123gNNtidsdUKVOrfeka-19" edge="1">
          <mxGeometry width="50" height="50" relative="1" as="geometry">
            <mxPoint x="490" y="225" as="sourcePoint" />
            <mxPoint x="530" y="220" as="targetPoint" />
            <Array as="points" />
          </mxGeometry>
        </mxCell>
        <UserObject label=".1&lt;div style=&quot;font-size: 13px;&quot;&gt;:1&lt;/div&gt;" placeholders="1" name="Variable" id="123gNNtidsdUKVOrfeka-23">
          <mxCell style="text;html=1;strokeColor=none;fillColor=none;align=center;verticalAlign=middle;whiteSpace=wrap;overflow=hidden;fontFamily=Lucida Console;fontSize=13;fontStyle=1" parent="1" vertex="1">
            <mxGeometry x="620" y="245" width="70" height="40" as="geometry" />
          </mxCell>
        </UserObject>
        <mxCell id="123gNNtidsdUKVOrfeka-24" value="" style="rounded=1;whiteSpace=wrap;html=1;fontFamily=Lucida Console;fontSize=13;fontStyle=1" parent="1" vertex="1">
          <mxGeometry x="120" y="600" width="560" height="170" as="geometry" />
        </mxCell>
        <mxCell id="123gNNtidsdUKVOrfeka-25" value="" style="ellipse;shape=cloud;whiteSpace=wrap;html=1;fontFamily=Lucida Console;fontSize=13;fontStyle=1;strokeColor=#0066CC;" parent="1" vertex="1">
          <mxGeometry x="130" y="610" width="230" height="150" as="geometry" />
        </mxCell>
        <UserObject label="BR-SRV" placeholders="1" name="Variable" id="123gNNtidsdUKVOrfeka-28">
          <mxCell style="text;html=1;strokeColor=none;fillColor=none;align=center;verticalAlign=middle;whiteSpace=wrap;overflow=hidden;fontFamily=Lucida Console;fontSize=15;fontStyle=1" parent="1" vertex="1">
            <mxGeometry x="172.5" y="640" width="80" height="20" as="geometry" />
          </mxCell>
        </UserObject>
        <UserObject label="BR&lt;div style=&quot;font-size: 13px;&quot;&gt;local&lt;/div&gt;" placeholders="1" name="Variable" id="123gNNtidsdUKVOrfeka-29">
          <mxCell style="text;html=1;strokeColor=none;fillColor=none;align=center;verticalAlign=middle;whiteSpace=wrap;overflow=hidden;fontFamily=Lucida Console;fontSize=13;fontStyle=1" parent="1" vertex="1">
            <mxGeometry x="282.5" y="665" width="50" height="30" as="geometry" />
          </mxCell>
        </UserObject>
        <mxCell id="123gNNtidsdUKVOrfeka-30" value="" style="strokeWidth=2;html=1;shape=mxgraph.flowchart.direct_data;whiteSpace=wrap;fontFamily=Lucida Console;fontSize=13;fontStyle=1;strokeColor=#0066CC;" parent="1" vertex="1">
          <mxGeometry x="370" y="665" width="210" height="40" as="geometry" />
        </mxCell>
        <mxCell id="123gNNtidsdUKVOrfeka-32" value="" style="endArrow=none;html=1;rounded=0;fontFamily=Lucida Console;fontSize=13;fontStyle=1" parent="1" edge="1">
          <mxGeometry width="50" height="50" relative="1" as="geometry">
            <mxPoint x="330" y="685" as="sourcePoint" />
            <mxPoint x="370" y="685" as="targetPoint" />
            <Array as="points" />
          </mxGeometry>
        </mxCell>
        <mxCell id="123gNNtidsdUKVOrfeka-33" value="" style="endArrow=none;html=1;rounded=0;exitX=0.25;exitY=0;exitDx=0;exitDy=0;fontFamily=Lucida Console;fontSize=13;fontStyle=1" parent="1" edge="1">
          <mxGeometry width="50" height="50" relative="1" as="geometry">
            <mxPoint x="580" y="684.5" as="sourcePoint" />
            <mxPoint x="620" y="684.5" as="targetPoint" />
            <Array as="points" />
          </mxGeometry>
        </mxCell>
        <mxCell id="123gNNtidsdUKVOrfeka-34" value="" style="sketch=0;points=[[0.5,0,0],[1,0.5,0],[0.5,1,0],[0,0.5,0],[0.145,0.145,0],[0.8555,0.145,0],[0.855,0.8555,0],[0.145,0.855,0]];verticalLabelPosition=bottom;html=1;verticalAlign=top;aspect=fixed;align=center;pointerEvents=1;shape=mxgraph.cisco19.rect;prIcon=router;fillColor=#FAFAFA;strokeColor=#0066CC;fontFamily=Lucida Console;fontSize=13;fontStyle=1" parent="1" vertex="1">
          <mxGeometry x="620" y="660" width="50" height="50" as="geometry" />
        </mxCell>
        <UserObject label="BR&lt;span style=&quot;background-color: initial; font-size: 15px;&quot;&gt;-R&lt;/span&gt;" placeholders="1" name="Variable" id="123gNNtidsdUKVOrfeka-35">
          <mxCell style="text;html=1;strokeColor=none;fillColor=none;align=center;verticalAlign=middle;whiteSpace=wrap;overflow=hidden;fontFamily=Lucida Console;fontSize=15;fontStyle=1" parent="1" vertex="1">
            <mxGeometry x="590" y="640" width="60" height="20" as="geometry" />
          </mxCell>
        </UserObject>
        <UserObject label=".14&lt;div style=&quot;font-size: 13px;&quot;&gt;:f&lt;/div&gt;" placeholders="1" name="Variable" id="123gNNtidsdUKVOrfeka-36">
          <mxCell style="text;html=1;strokeColor=none;fillColor=none;align=center;verticalAlign=middle;whiteSpace=wrap;overflow=hidden;fontFamily=Lucida Console;fontSize=13;fontStyle=1" parent="1" vertex="1">
            <mxGeometry x="570" y="690" width="80" height="40" as="geometry" />
          </mxCell>
        </UserObject>
        <UserObject label="192.168.200.0/28&lt;div style=&quot;font-size: 13px;&quot;&gt;2000:200::/124&lt;/div&gt;" placeholders="1" name="Variable" id="123gNNtidsdUKVOrfeka-37">
          <mxCell style="text;html=1;strokeColor=none;fillColor=none;align=center;verticalAlign=middle;whiteSpace=wrap;overflow=hidden;fontFamily=Lucida Console;fontSize=13;fontStyle=1" parent="1" vertex="1">
            <mxGeometry x="390" y="670" width="150" height="30" as="geometry" />
          </mxCell>
        </UserObject>
        <mxCell id="123gNNtidsdUKVOrfeka-40" value="" style="strokeWidth=2;html=1;shape=mxgraph.flowchart.direct_data;whiteSpace=wrap;direction=south;fontFamily=Lucida Console;fontSize=13;fontStyle=1;strokeColor=#0066CC;" parent="1" vertex="1">
          <mxGeometry x="625" y="330" width="40" height="230" as="geometry" />
        </mxCell>
        <mxCell id="123gNNtidsdUKVOrfeka-41" value="" style="endArrow=none;html=1;rounded=0;exitX=0.25;exitY=0;exitDx=0;exitDy=0;entryX=0.5;entryY=0;entryDx=0;entryDy=0;entryPerimeter=0;fontFamily=Lucida Console;fontSize=13;fontStyle=1" parent="1" target="123gNNtidsdUKVOrfeka-34" edge="1">
          <mxGeometry width="50" height="50" relative="1" as="geometry">
            <mxPoint x="644.5" y="560" as="sourcePoint" />
            <mxPoint x="644.5" y="591" as="targetPoint" />
            <Array as="points" />
          </mxGeometry>
        </mxCell>
        <UserObject label="172.16.100.0/24&lt;div style=&quot;font-size: 13px;&quot;&gt;2001.100::/64&lt;/div&gt;" placeholders="1" name="Variable" id="123gNNtidsdUKVOrfeka-43">
          <mxCell style="text;html=1;strokeColor=none;fillColor=none;align=center;verticalAlign=middle;whiteSpace=wrap;overflow=hidden;rotation=90;fontFamily=Lucida Console;fontSize=13;fontStyle=1" parent="1" vertex="1">
            <mxGeometry x="553.75" y="412.5" width="182.5" height="40" as="geometry" />
          </mxCell>
        </UserObject>
        <UserObject label=".44&lt;div style=&quot;font-size: 13px;&quot;&gt;:44&lt;/div&gt;" placeholders="1" name="Variable" id="123gNNtidsdUKVOrfeka-44">
          <mxCell style="text;html=1;strokeColor=none;fillColor=none;align=center;verticalAlign=middle;whiteSpace=wrap;overflow=hidden;fontFamily=Lucida Console;fontSize=13;fontStyle=1" parent="1" vertex="1">
            <mxGeometry x="656.25" y="145" width="80" height="40" as="geometry" />
          </mxCell>
        </UserObject>
        <UserObject label=".11&lt;div style=&quot;font-size: 13px;&quot;&gt;:11&lt;/div&gt;" placeholders="1" name="Variable" id="123gNNtidsdUKVOrfeka-45">
          <mxCell style="text;html=1;strokeColor=none;fillColor=none;align=center;verticalAlign=middle;whiteSpace=wrap;overflow=hidden;fontFamily=Lucida Console;fontSize=13;fontStyle=1" parent="1" vertex="1">
            <mxGeometry x="665" y="205" width="80" height="40" as="geometry" />
          </mxCell>
        </UserObject>
        <mxCell id="123gNNtidsdUKVOrfeka-46" value="" style="strokeWidth=2;html=1;shape=mxgraph.flowchart.direct_data;whiteSpace=wrap;direction=east;rotation=-210;fontFamily=Lucida Console;fontSize=13;fontStyle=1;strokeColor=#0066CC;" parent="1" vertex="1">
          <mxGeometry x="727.5" y="115" width="205" height="40" as="geometry" />
        </mxCell>
        <mxCell id="123gNNtidsdUKVOrfeka-49" value="" style="endArrow=none;html=1;rounded=0;fontFamily=Lucida Console;fontSize=13;fontStyle=1;entryX=1;entryY=0.5;entryDx=0;entryDy=0;entryPerimeter=0;" parent="1" edge="1" target="123gNNtidsdUKVOrfeka-46">
          <mxGeometry width="50" height="50" relative="1" as="geometry">
            <mxPoint x="660" y="204" as="sourcePoint" />
            <mxPoint x="730" y="195" as="targetPoint" />
            <Array as="points" />
          </mxGeometry>
        </mxCell>
        <UserObject label="44.44.44.0/24&lt;div style=&quot;font-size: 13px;&quot;&gt;2001:44::/64&lt;/div&gt;" placeholders="1" name="Variable" id="123gNNtidsdUKVOrfeka-50">
          <mxCell style="text;html=1;strokeColor=none;fillColor=none;align=center;verticalAlign=middle;whiteSpace=wrap;overflow=hidden;rotation=-30;fontFamily=Lucida Console;fontSize=13;fontStyle=1" parent="1" vertex="1">
            <mxGeometry x="761.25" y="115" width="152.5" height="30" as="geometry" />
          </mxCell>
        </UserObject>
        <mxCell id="123gNNtidsdUKVOrfeka-52" value="" style="verticalLabelPosition=bottom;html=1;verticalAlign=top;align=center;strokeColor=none;fillColor=#0066CC;shape=mxgraph.azure.computer;pointerEvents=1;fontFamily=Lucida Console;fontSize=13;fontStyle=1" parent="1" vertex="1">
          <mxGeometry x="1007.5" y="30" width="40" height="40" as="geometry" />
        </mxCell>
        <mxCell id="123gNNtidsdUKVOrfeka-53" value="" style="endArrow=none;html=1;rounded=0;entryX=0;entryY=0.5;entryDx=0;entryDy=0;entryPerimeter=0;fontFamily=Lucida Console;fontSize=13;fontStyle=1;exitX=0;exitY=0.5;exitDx=0;exitDy=0;exitPerimeter=0;" parent="1" source="123gNNtidsdUKVOrfeka-46" target="123gNNtidsdUKVOrfeka-52" edge="1">
          <mxGeometry width="50" height="50" relative="1" as="geometry">
            <mxPoint x="930" y="130" as="sourcePoint" />
            <mxPoint x="970" y="185" as="targetPoint" />
            <Array as="points" />
          </mxGeometry>
        </mxCell>
        <UserObject label=".1&lt;div style=&quot;font-size: 13px;&quot;&gt;:1&lt;/div&gt;" placeholders="1" name="Variable" id="123gNNtidsdUKVOrfeka-54">
          <mxCell style="text;html=1;strokeColor=none;fillColor=none;align=center;verticalAlign=middle;whiteSpace=wrap;overflow=hidden;fontFamily=Lucida Console;fontSize=13;fontStyle=1" parent="1" vertex="1">
            <mxGeometry x="950" y="10" width="80" height="40" as="geometry" />
          </mxCell>
        </UserObject>
        <UserObject label="CLI" placeholders="1" name="Variable" id="123gNNtidsdUKVOrfeka-55">
          <mxCell style="text;html=1;strokeColor=none;fillColor=none;align=center;verticalAlign=middle;whiteSpace=wrap;overflow=hidden;fontStyle=1;fontSize=15;" parent="1" vertex="1">
            <mxGeometry x="987.5" width="80" height="30" as="geometry" />
          </mxCell>
        </UserObject>
        <UserObject label=".33&lt;div style=&quot;font-size: 13px;&quot;&gt;:33&lt;/div&gt;" placeholders="1" name="Variable" id="123gNNtidsdUKVOrfeka-56">
          <mxCell style="text;html=1;strokeColor=none;fillColor=none;align=center;verticalAlign=middle;whiteSpace=wrap;overflow=hidden;fontFamily=Lucida Console;fontSize=13;fontStyle=1" parent="1" vertex="1">
            <mxGeometry x="1007.5" y="75" width="80" height="40" as="geometry" />
          </mxCell>
        </UserObject>
        <mxCell id="123gNNtidsdUKVOrfeka-57" value="" style="strokeWidth=2;html=1;shape=mxgraph.flowchart.direct_data;whiteSpace=wrap;direction=south;fontFamily=Lucida Console;fontSize=13;fontStyle=1;strokeColor=#0066CC;" parent="1" vertex="1">
          <mxGeometry x="1007.5" y="140" width="40" height="230" as="geometry" />
        </mxCell>
        <mxCell id="123gNNtidsdUKVOrfeka-59" value="" style="sketch=0;points=[[0.5,0,0],[1,0.5,0],[0.5,1,0],[0,0.5,0],[0.145,0.145,0],[0.8555,0.145,0],[0.855,0.8555,0],[0.145,0.855,0]];verticalLabelPosition=bottom;html=1;verticalAlign=top;aspect=fixed;align=center;pointerEvents=1;shape=mxgraph.cisco19.rect;prIcon=router;fillColor=#FAFAFA;strokeColor=#0066CC;fontFamily=Lucida Console;fontSize=13;fontStyle=1" parent="1" vertex="1">
          <mxGeometry x="990" y="437.5" width="50" height="50" as="geometry" />
        </mxCell>
        <UserObject label="&lt;font style=&quot;font-size: 15px;&quot;&gt;ISP&lt;/font&gt;" placeholders="1" name="Variable" id="123gNNtidsdUKVOrfeka-60">
          <mxCell style="text;html=1;strokeColor=none;fillColor=none;align=center;verticalAlign=middle;whiteSpace=wrap;overflow=hidden;fontFamily=Lucida Console;fontSize=13;fontStyle=1" parent="1" vertex="1">
            <mxGeometry x="1030" y="452.5" width="80" height="20" as="geometry" />
          </mxCell>
        </UserObject>
        <UserObject label="33.33.33.0/24&lt;div style=&quot;font-size: 13px;&quot;&gt;2001:33::/64&lt;/div&gt;" placeholders="1" name="Variable" id="123gNNtidsdUKVOrfeka-61">
          <mxCell style="text;html=1;strokeColor=none;fillColor=none;align=center;verticalAlign=middle;whiteSpace=wrap;overflow=hidden;rotation=90;fontFamily=Lucida Console;fontSize=13;fontStyle=1" parent="1" vertex="1">
            <mxGeometry x="932.5" y="215" width="190" height="50" as="geometry" />
          </mxCell>
        </UserObject>
        <mxCell id="123gNNtidsdUKVOrfeka-62" value="" style="endArrow=none;html=1;rounded=0;entryX=0.7;entryY=0.01;entryDx=0;entryDy=0;entryPerimeter=0;exitX=1;exitY=0.5;exitDx=0;exitDy=0;exitPerimeter=0;fontFamily=Lucida Console;fontSize=13;fontStyle=1" parent="1" source="123gNNtidsdUKVOrfeka-57" target="123gNNtidsdUKVOrfeka-59" edge="1">
          <mxGeometry width="50" height="50" relative="1" as="geometry">
            <mxPoint x="1025" y="380" as="sourcePoint" />
            <mxPoint x="1010" y="428" as="targetPoint" />
            <Array as="points" />
          </mxGeometry>
        </mxCell>
        <UserObject label=".1&lt;div style=&quot;font-size: 13px;&quot;&gt;:1&lt;/div&gt;" placeholders="1" name="Variable" id="123gNNtidsdUKVOrfeka-63">
          <mxCell style="text;html=1;strokeColor=none;fillColor=none;align=center;verticalAlign=middle;whiteSpace=wrap;overflow=hidden;fontFamily=Lucida Console;fontSize=13;fontStyle=1" parent="1" vertex="1">
            <mxGeometry x="1000" y="410" width="80" height="40" as="geometry" />
          </mxCell>
        </UserObject>
        <UserObject label=".1&lt;div style=&quot;font-size: 13px;&quot;&gt;:1&lt;/div&gt;" placeholders="1" name="Variable" id="123gNNtidsdUKVOrfeka-64">
          <mxCell style="text;html=1;strokeColor=none;fillColor=none;align=center;verticalAlign=middle;whiteSpace=wrap;overflow=hidden;fontFamily=Lucida Console;fontSize=13;fontStyle=1" parent="1" vertex="1">
            <mxGeometry x="960" y="400" width="80" height="40" as="geometry" />
          </mxCell>
        </UserObject>
        <UserObject label=".1&lt;div style=&quot;font-size: 13px;&quot;&gt;:1&lt;/div&gt;" placeholders="1" name="Variable" id="123gNNtidsdUKVOrfeka-65">
          <mxCell style="text;html=1;strokeColor=none;fillColor=none;align=center;verticalAlign=middle;whiteSpace=wrap;overflow=hidden;fontFamily=Lucida Console;fontSize=13;fontStyle=1" parent="1" vertex="1">
            <mxGeometry x="960" y="452.5" width="35" height="40" as="geometry" />
          </mxCell>
        </UserObject>
        <mxCell id="123gNNtidsdUKVOrfeka-66" style="edgeStyle=orthogonalEdgeStyle;rounded=0;orthogonalLoop=1;jettySize=auto;html=1;exitX=0.5;exitY=1;exitDx=0;exitDy=0;fontFamily=Lucida Console;fontSize=13;fontStyle=1" parent="1" source="123gNNtidsdUKVOrfeka-60" target="123gNNtidsdUKVOrfeka-60" edge="1">
          <mxGeometry relative="1" as="geometry" />
        </mxCell>
        <UserObject label=".2&lt;div style=&quot;font-size: 13px;&quot;&gt;:2&lt;/div&gt;" placeholders="1" name="Variable" id="123gNNtidsdUKVOrfeka-67">
          <mxCell style="text;html=1;strokeColor=none;fillColor=none;align=center;verticalAlign=middle;whiteSpace=wrap;overflow=hidden;fontFamily=Lucida Console;fontSize=13;fontStyle=1" parent="1" vertex="1">
            <mxGeometry x="615" y="560" width="80" height="40" as="geometry" />
          </mxCell>
        </UserObject>
        <UserObject label=".22&lt;div style=&quot;font-size: 13px;&quot;&gt;:22&lt;/div&gt;" placeholders="1" name="Variable" id="123gNNtidsdUKVOrfeka-68">
          <mxCell style="text;html=1;strokeColor=none;fillColor=none;align=center;verticalAlign=middle;whiteSpace=wrap;overflow=hidden;fontFamily=Lucida Console;fontSize=13;fontStyle=1" parent="1" vertex="1">
            <mxGeometry x="655" y="630" width="80" height="40" as="geometry" />
          </mxCell>
        </UserObject>
        <mxCell id="123gNNtidsdUKVOrfeka-69" value="" style="strokeWidth=2;html=1;shape=mxgraph.flowchart.direct_data;whiteSpace=wrap;direction=east;rotation=-30;fontFamily=Lucida Console;fontSize=13;fontStyle=1;strokeColor=#0066CC;" parent="1" vertex="1">
          <mxGeometry x="735" y="570" width="205" height="40" as="geometry" />
        </mxCell>
        <mxCell id="123gNNtidsdUKVOrfeka-70" value="" style="strokeWidth=2;html=1;shape=mxgraph.flowchart.direct_data;whiteSpace=wrap;direction=east;rotation=30;fontFamily=Lucida Console;fontSize=13;fontStyle=1;strokeColor=#0066CC;" parent="1" vertex="1">
          <mxGeometry x="725" y="285" width="205" height="40" as="geometry" />
        </mxCell>
        <UserObject label="11.11.11.0/24&lt;div style=&quot;font-size: 13px;&quot;&gt;2001:11::/64&lt;/div&gt;" placeholders="1" name="Variable" id="123gNNtidsdUKVOrfeka-71">
          <mxCell style="text;html=1;strokeColor=none;fillColor=none;align=center;verticalAlign=middle;whiteSpace=wrap;overflow=hidden;rotation=30;fontFamily=Lucida Console;fontSize=13;fontStyle=1" parent="1" vertex="1">
            <mxGeometry x="735" y="285" width="162.5" height="30" as="geometry" />
          </mxCell>
        </UserObject>
        <UserObject label="22.22.22.0/24&lt;div style=&quot;font-size: 13px;&quot;&gt;2001:22::/64&lt;/div&gt;" placeholders="1" name="Variable" id="123gNNtidsdUKVOrfeka-72">
          <mxCell style="text;html=1;strokeColor=none;fillColor=none;align=center;verticalAlign=middle;whiteSpace=wrap;overflow=hidden;rotation=-30;fontFamily=Lucida Console;fontSize=13;fontStyle=1" parent="1" vertex="1">
            <mxGeometry x="752.5" y="580" width="150" height="30" as="geometry" />
          </mxCell>
        </UserObject>
        <mxCell id="123gNNtidsdUKVOrfeka-74" value="" style="endArrow=none;html=1;rounded=0;entryX=0;entryY=0.5;entryDx=0;entryDy=0;entryPerimeter=0;fontFamily=Lucida Console;fontSize=13;fontStyle=1;exitX=0.855;exitY=0.8555;exitDx=0;exitDy=0;exitPerimeter=0;" parent="1" target="123gNNtidsdUKVOrfeka-70" edge="1" source="123gNNtidsdUKVOrfeka-19">
          <mxGeometry width="50" height="50" relative="1" as="geometry">
            <mxPoint x="660" y="230" as="sourcePoint" />
            <mxPoint x="720" y="270" as="targetPoint" />
            <Array as="points" />
          </mxGeometry>
        </mxCell>
        <mxCell id="123gNNtidsdUKVOrfeka-75" value="" style="endArrow=none;html=1;rounded=0;entryX=0.145;entryY=0.855;entryDx=0;entryDy=0;entryPerimeter=0;fontFamily=Lucida Console;fontSize=13;fontStyle=1;exitX=0.998;exitY=0.301;exitDx=0;exitDy=0;exitPerimeter=0;" parent="1" source="123gNNtidsdUKVOrfeka-69" target="123gNNtidsdUKVOrfeka-59" edge="1">
          <mxGeometry width="50" height="50" relative="1" as="geometry">
            <mxPoint x="930" y="540" as="sourcePoint" />
            <mxPoint x="1010" y="485" as="targetPoint" />
            <Array as="points" />
          </mxGeometry>
        </mxCell>
        <mxCell id="123gNNtidsdUKVOrfeka-76" value="" style="endArrow=none;html=1;rounded=0;entryX=0.145;entryY=0.145;entryDx=0;entryDy=0;entryPerimeter=0;exitX=1;exitY=0.5;exitDx=0;exitDy=0;exitPerimeter=0;fontFamily=Lucida Console;fontSize=13;fontStyle=1" parent="1" source="123gNNtidsdUKVOrfeka-70" target="123gNNtidsdUKVOrfeka-59" edge="1">
          <mxGeometry width="50" height="50" relative="1" as="geometry">
            <mxPoint x="900" y="350" as="sourcePoint" />
            <mxPoint x="990" y="241" as="targetPoint" />
            <Array as="points" />
          </mxGeometry>
        </mxCell>
        <UserObject label="&lt;font style=&quot;font-size: 15px;&quot;&gt;HQ&lt;/font&gt;" placeholders="1" name="Variable" id="123gNNtidsdUKVOrfeka-79">
          <mxCell style="text;html=1;strokeColor=none;fillColor=none;align=center;verticalAlign=middle;whiteSpace=wrap;overflow=hidden;fontFamily=Lucida Console;fontSize=13;fontStyle=1" parent="1" vertex="1">
            <mxGeometry x="320" y="110" width="80" height="20" as="geometry" />
          </mxCell>
        </UserObject>
        <UserObject label="&lt;font style=&quot;font-size: 15px;&quot;&gt;BR&lt;/font&gt;" placeholders="1" name="Variable" id="123gNNtidsdUKVOrfeka-80">
          <mxCell style="text;html=1;strokeColor=none;fillColor=none;align=center;verticalAlign=middle;whiteSpace=wrap;overflow=hidden;fontFamily=Lucida Console;fontSize=13;fontStyle=1" parent="1" vertex="1">
            <mxGeometry x="380" y="610" width="80" height="20" as="geometry" />
          </mxCell>
        </UserObject>
        <mxCell id="123gNNtidsdUKVOrfeka-81" value="" style="fontColor=#ffffff;verticalAlign=top;verticalLabelPosition=bottom;labelPosition=center;align=center;html=1;outlineConnect=0;fillColor=#0066CC;strokeColor=#006EAF;gradientDirection=north;strokeWidth=2;shape=mxgraph.networks.server;fontFamily=Lucida Console;fontSize=13;fontStyle=1" parent="1" vertex="1">
          <mxGeometry x="90" y="175" width="25" height="45" as="geometry" />
        </mxCell>
        <mxCell id="123gNNtidsdUKVOrfeka-82" value="" style="fontColor=#ffffff;verticalAlign=top;verticalLabelPosition=bottom;labelPosition=center;align=center;html=1;outlineConnect=0;fillColor=#0066CC;strokeColor=#006EAF;gradientDirection=north;strokeWidth=2;shape=mxgraph.networks.server;fontFamily=Lucida Console;fontSize=13;fontStyle=1" parent="1" vertex="1">
          <mxGeometry x="90" y="240" width="25" height="50" as="geometry" />
        </mxCell>
        <UserObject label=".1&lt;div style=&quot;font-size: 13px;&quot;&gt;&lt;/div&gt;&lt;div style=&quot;font-size: 13px;&quot;&gt;:1&lt;/div&gt;" placeholders="1" name="Variable" id="123gNNtidsdUKVOrfeka-84">
          <mxCell style="text;html=1;strokeColor=none;fillColor=none;align=center;verticalAlign=middle;whiteSpace=wrap;overflow=hidden;fontFamily=Lucida Console;fontSize=13;fontStyle=1" parent="1" vertex="1">
            <mxGeometry x="217.5" y="680" width="40" height="30" as="geometry" />
          </mxCell>
        </UserObject>
        <UserObject label="static&lt;div style=&quot;font-size: 13px;&quot;&gt;&lt;/div&gt;" placeholders="1" name="Variable" id="123gNNtidsdUKVOrfeka-85">
          <mxCell style="text;html=1;strokeColor=none;fillColor=none;align=center;verticalAlign=middle;whiteSpace=wrap;overflow=hidden;fontFamily=Lucida Console;fontSize=13;fontStyle=1" parent="1" vertex="1">
            <mxGeometry x="177.5" y="320" width="80" height="30" as="geometry" />
          </mxCell>
        </UserObject>
        <mxCell id="123gNNtidsdUKVOrfeka-88" value="" style="endArrow=none;html=1;rounded=0;exitX=-0.004;exitY=0.65;exitDx=0;exitDy=0;exitPerimeter=0;fontFamily=Lucida Console;fontSize=13;fontStyle=1;entryX=0.25;entryY=0;entryDx=0;entryDy=0;" parent="1" edge="1">
          <mxGeometry width="50" height="50" relative="1" as="geometry">
            <mxPoint x="645.75" y="329.0799999999999" as="sourcePoint" />
            <mxPoint x="644.25" y="245" as="targetPoint" />
            <Array as="points" />
          </mxGeometry>
        </mxCell>
        <mxCell id="123gNNtidsdUKVOrfeka-89" value="" style="endArrow=none;html=1;rounded=0;entryX=0.5;entryY=1;entryDx=0;entryDy=0;entryPerimeter=0;exitX=0;exitY=0.5;exitDx=0;exitDy=0;exitPerimeter=0;fontFamily=Lucida Console;fontSize=13;fontStyle=1" parent="1" source="123gNNtidsdUKVOrfeka-57" target="123gNNtidsdUKVOrfeka-52" edge="1">
          <mxGeometry width="50" height="50" relative="1" as="geometry">
            <mxPoint x="1015" y="130" as="sourcePoint" />
            <mxPoint x="1015" y="160" as="targetPoint" />
            <Array as="points" />
          </mxGeometry>
        </mxCell>
        <mxCell id="123gNNtidsdUKVOrfeka-91" value="" style="endArrow=none;html=1;rounded=0;exitX=1;exitY=0.5;exitDx=0;exitDy=0;entryX=0;entryY=0.5;entryDx=0;entryDy=0;exitPerimeter=0;entryPerimeter=0;fontFamily=Lucida Console;fontSize=13;fontStyle=1" parent="1" source="123gNNtidsdUKVOrfeka-34" target="123gNNtidsdUKVOrfeka-69" edge="1">
          <mxGeometry width="50" height="50" relative="1" as="geometry">
            <mxPoint x="675" y="684.5" as="sourcePoint" />
            <mxPoint x="715" y="684.5" as="targetPoint" />
            <Array as="points" />
          </mxGeometry>
        </mxCell>
        <mxCell id="123gNNtidsdUKVOrfeka-92" value="" style="fontColor=#ffffff;verticalAlign=top;verticalLabelPosition=bottom;labelPosition=center;align=center;html=1;outlineConnect=0;fillColor=#0066CC;strokeColor=#006EAF;gradientDirection=north;strokeWidth=2;shape=mxgraph.networks.server;fontFamily=Lucida Console;fontSize=13;fontStyle=1" parent="1" vertex="1">
          <mxGeometry x="200" y="660" width="25" height="50" as="geometry" />
        </mxCell>
      </root>
    </mxGraphModel>
  </diagram>
</mxfile>
